<svg xmlns="http://www.w3.org/2000/svg" xmlns:xlink="http://www.w3.org/1999/xlink" width="369" zoomAndPan="magnify" viewBox="0 0 276.75 256.499992" height="342" preserveAspectRatio="xMidYMid meet" version="1.0"><defs><clipPath id="a76be30b59"><path d="M 72.015625 0 L 204.480469 0 L 204.480469 132.464844 L 72.015625 132.464844 Z M 72.015625 0 " clip-rule="nonzero"/></clipPath><clipPath id="3592cb9f92"><path d="M 138.246094 0 C 101.667969 0 72.015625 29.652344 72.015625 66.234375 C 72.015625 102.8125 101.667969 132.464844 138.246094 132.464844 C 174.828125 132.464844 204.480469 102.8125 204.480469 66.234375 C 204.480469 29.652344 174.828125 0 138.246094 0 Z M 138.246094 0 " clip-rule="nonzero"/></clipPath><clipPath id="f8947e709b"><path d="M 142.738281 121.800781 L 276.34375 121.800781 L 276.34375 255.410156 L 142.738281 255.410156 Z M 142.738281 121.800781 " clip-rule="nonzero"/></clipPath><clipPath id="f9e926d426"><path d="M 209.542969 121.800781 C 172.648438 121.800781 142.738281 151.710938 142.738281 188.605469 C 142.738281 225.5 172.648438 255.410156 209.542969 255.410156 C 246.4375 255.410156 276.34375 225.5 276.34375 188.605469 C 276.34375 151.710938 246.4375 121.800781 209.542969 121.800781 Z M 209.542969 121.800781 " clip-rule="nonzero"/></clipPath><clipPath id="13fe47513d"><path d="M 0.144531 121.800781 L 133.75 121.800781 L 133.75 255.410156 L 0.144531 255.410156 Z M 0.144531 121.800781 " clip-rule="nonzero"/></clipPath><clipPath id="39d32a5d98"><path d="M 66.949219 121.800781 C 30.054688 121.800781 0.144531 151.710938 0.144531 188.605469 C 0.144531 225.5 30.054688 255.410156 66.949219 255.410156 C 103.839844 255.410156 133.75 225.5 133.75 188.605469 C 133.75 151.710938 103.839844 121.800781 66.949219 121.800781 Z M 66.949219 121.800781 " clip-rule="nonzero"/></clipPath><clipPath id="3703e0a2b1"><path d="M 142.734375 121.800781 L 276.339844 121.800781 L 276.339844 255.40625 L 142.734375 255.40625 Z M 142.734375 121.800781 " clip-rule="nonzero"/></clipPath><clipPath id="d754488232"><path d="M 209.539062 255.40625 C 246.433594 255.40625 276.339844 225.496094 276.339844 188.601562 C 276.339844 151.707031 246.433594 121.800781 209.539062 121.800781 C 172.644531 121.800781 142.734375 151.707031 142.734375 188.601562 C 142.734375 225.496094 172.644531 255.40625 209.539062 255.40625 Z M 209.539062 255.40625 " clip-rule="nonzero"/></clipPath></defs><g clip-path="url(#a76be30b59)"><g clip-path="url(#3592cb9f92)"><path fill="#f7db50" d="M 72.015625 0 L 204.480469 0 L 204.480469 132.464844 L 72.015625 132.464844 Z M 72.015625 0 " fill-opacity="1" fill-rule="nonzero"/></g></g><g clip-path="url(#f8947e709b)"><g clip-path="url(#f9e926d426)"><path fill="#919191" d="M 142.738281 121.800781 L 276.34375 121.800781 L 276.34375 255.410156 L 142.738281 255.410156 Z M 142.738281 121.800781 " fill-opacity="1" fill-rule="nonzero"/></g></g><g clip-path="url(#13fe47513d)"><g clip-path="url(#39d32a5d98)"><path fill="#ff9052" d="M 0.144531 121.800781 L 133.75 121.800781 L 133.75 255.410156 L 0.144531 255.410156 Z M 0.144531 121.800781 " fill-opacity="1" fill-rule="nonzero"/></g></g><g clip-path="url(#3703e0a2b1)"><g clip-path="url(#d754488232)"><path fill="#107969" d="M 276.339844 255.40625 L 142.734375 255.40625 L 142.734375 121.800781 L 276.339844 121.800781 Z M 276.339844 255.40625 " fill-opacity="1" fill-rule="nonzero"/></g></g></svg>