<svg width="296" height="83" viewBox="0 0 296 83" fill="none" xmlns="http://www.w3.org/2000/svg">
<path d="M255.546 82V1H263.246L286.246 54.8V1H295.646V82H288.446L265.146 26.7V82H255.546Z" fill="#47525E"/>
<path d="M231.341 82V1H242.441V82H231.341Z" fill="#47525E"/>
<path d="M181.23 82V1H192.53V39.2L211.13 1H221.63L205.63 36.7L224.23 82H213.23L197.73 44L192.53 53.4V82H181.23Z" fill="#47525E"/>
<path d="M129.374 82V1H145.674C151.074 1 155.541 1.73334 159.074 3.2C162.608 4.60001 165.208 6.9 166.874 10.1C168.608 13.2333 169.474 17.3667 169.474 22.5C169.474 25.6333 169.141 28.5 168.474 31.1C167.808 33.6333 166.741 35.8 165.274 37.6C163.808 39.3333 161.874 40.6 159.474 41.4L170.974 82H160.074L149.474 44H140.674V82H129.374ZM140.674 35.9H144.974C148.174 35.9 150.774 35.5 152.774 34.7C154.774 33.9 156.241 32.5333 157.174 30.6C158.108 28.6667 158.574 25.9667 158.574 22.5C158.574 17.7667 157.708 14.3667 155.974 12.3C154.241 10.1667 150.808 9.10001 145.674 9.10001H140.674V35.9Z" fill="#47525E"/>
<path d="M96.168 82.9C90.7013 82.9 86.3346 81.8333 83.068 79.7C79.8013 77.5667 77.468 74.5333 76.068 70.6C74.668 66.6 73.968 61.9333 73.968 56.6V25.9C73.968 20.5667 74.668 16 76.068 12.2C77.5346 8.33332 79.868 5.39999 83.068 3.39999C86.3346 1.33332 90.7013 0.299988 96.168 0.299988C101.635 0.299988 105.968 1.33332 109.168 3.39999C112.368 5.46665 114.668 8.39999 116.068 12.2C117.535 16 118.268 20.5667 118.268 25.9V56.7C118.268 61.9667 117.535 66.5667 116.068 70.5C114.668 74.4333 112.368 77.5 109.168 79.7C105.968 81.8333 101.635 82.9 96.168 82.9ZM96.168 74C99.168 74 101.435 73.4 102.968 72.2C104.501 70.9333 105.535 69.2 106.068 67C106.601 64.7333 106.868 62.1 106.868 59.1V23.6C106.868 20.6 106.601 18.0333 106.068 15.9C105.535 13.7 104.501 12.0333 102.968 10.9C101.435 9.69999 99.168 9.09999 96.168 9.09999C93.168 9.09999 90.868 9.69999 89.268 10.9C87.7346 12.0333 86.7013 13.7 86.168 15.9C85.6346 18.0333 85.368 20.6 85.368 23.6V59.1C85.368 62.1 85.6346 64.7333 86.168 67C86.7013 69.2 87.7346 70.9333 89.268 72.2C90.868 73.4 93.168 74 96.168 74Z" fill="#47525E"/>
<path d="M13.8 82L0.600006 1H10L18.7 59.2L29.6 1.3H37.6L48.6 59.5L57.1 1H66.3L53.3 82H45.1L33.8 22L22.4 82H13.8Z" fill="#47525E"/>
</svg>
